<svg xmlns="http://www.w3.org/2000/svg" viewBox="0 0 72.1 72.2" enable-background="new 0 0 72.1 72.2"><g><circle fill="none" stroke="#48C2C5" stroke-miterlimit="10" cx="36.1" cy="36.1" r="35.4"/><path fill="none" stroke="#4BC2C5" stroke-miterlimit="10" d="M50.6 37.3c-.1 1.2-.3 2.5-.6 3.6l3.7 4.2c-.4.8-.9 1.8-1.4 2.5l-5.6-1.2c-.8.9-1.9 1.8-2.9 2.4l.2 5.6c-.9.4-1.8.7-2.7 1L38 50.9c-1.2.1-2.5.1-3.7 0l-3.5 4.4c-.9-.3-1.9-.6-2.7-1l.2-5.6c-.5-.3-1.1-.7-1.5-1.1-.5-.4-.9-.8-1.3-1.2l-5.5 1c-.5-.8-1-1.6-1.4-2.6l3.7-4c-.4-1.2-.6-2.6-.6-3.8l-4.8-2.6c.1-.9.3-2 .5-2.9l5.4-.7c.5-1.2 1.1-2.4 2-3.4l-2.1-5c.7-.7 1.4-1.2 2.3-1.9l4.5 2.9c1.1-.6 2.5-1 3.7-1.3l1.8-5.2c.9-.1 2 0 2.9 0l1.6 5.3c1.2.3 2.5.7 3.6 1.3l4.6-2.9c.4.3.8.6 1.1.9.4.3.7.6 1 1l-2.2 5.2c.8 1 1.4 2.2 1.9 3.3l5.5.8c.2.9.4 2 .5 2.9l-4.9 2.6z"/></g></svg>