<svg xmlns="http://www.w3.org/2000/svg" viewBox="313.5 487 52 52" enable-background="new 313.5 487 52 52"><g><path fill="#333" d="M327.4 502.1h24.2c.4 0 .9.1 1.2.2l-13.3 14.2-13.3-14.2c.3-.1.8-.2 1.2-.2zm-3 19.2v-16.7l8.8 9.4-8.7 8c-.1-.2-.1-.4-.1-.7zm27.2 2.7h-24.2c-.2 0-.6 0-.8-.1l8.6-7.8 4.3 4.5 4.3-4.5 8.6 7.8c-.2.1-.6.1-.8.1zm3-2.7c0 .2 0 .4-.1.7l-8.7-8 8.8-9.4v16.7z"/></g><g><path fill="none" stroke="#000" stroke-miterlimit="10" d="M364.5 512.8c0 13.7-11.2 24.8-24.8 24.8-13.7 0-24.8-11.2-24.8-24.8 0-13.7 11.2-24.8 24.8-24.8 13.6.1 24.8 11.2 24.8 24.8z"/></g></svg>