<svg xmlns="http://www.w3.org/2000/svg" viewBox="0 0 72.1 72.2" enable-background="new 0 0 72.1 72.2"><g><g fill="#48C2C5"><path d="M36.1 52.3c.9 0 1.9-.5 1.9-1.2h-3.7c-.1.7.9 1.2 1.8 1.2zM23.5 20.2c-1-1.1-2.2 0-1.2 1.1.2.3 6.1 6.8 6.1 6.8l1.2-1.1s-5.9-6.6-6.1-6.8zM38.6 49.5h-5c-.2 0-.4.2-.4.4v.2c0 .2.2.4.4.4h5c.2 0 .4-.2.4-.4v-.2c0-.3-.2-.4-.4-.4zM36.9 15.8c0-1.5-1.6-1.5-1.6 0v9.1h1.6v-9.1zM15.9 33.6c.3.1 9 1.4 9 1.4l.2-1.6s-8.7-1.3-9-1.4c-1.4-.2-1.7 1.4-.2 1.6zM56.2 32.2c-.3.1-9 1.4-9 1.4l.2 1.6s8.7-1.3 9-1.4c1.5-.2 1.2-1.8-.2-1.6zM38.6 48h-5c-.2 0-.4.2-.4.4v.2c0 .2.2.4.4.4h5c.2 0 .4-.2.4-.4v-.2c0-.3-.2-.4-.4-.4zM48.8 20.2c-.2.3-6.1 6.8-6.1 6.8l1.2 1.1s5.8-6.6 6.1-6.8c1-1.1-.2-2.2-1.2-1.1zM36.1 28.7c-3.9 0-7 3.1-7 7 0 1.3.4 2.5.9 3.5 1.7 3.1 2.2 4.8 2.5 6.5.2 1.4.6 1.7 1.6 1.7h4c1.1 0 1.4-.3 1.6-1.7.3-1.7.7-3.4 2.4-6.5.6-1 .9-2.2.9-3.5.1-3.8-3.1-7-6.9-7z"/></g><circle fill="none" stroke="#48C2C5" stroke-miterlimit="10" cx="36.1" cy="36.1" r="35.4"/></g></svg>