<svg xmlns="http://www.w3.org/2000/svg" viewBox="0 0 72.1 72.2" enable-background="new 0 0 72.1 72.2"><g><g fill="#48C2C5"><path d="M36 39.8c.4 0 .9-.2.9-.6h-1.8c0 .4.5.6.9.6zM30.1 24.7c-.5-.5-1 0-.6.5.1.1 2.9 3.2 2.9 3.2l.6-.5c-.1.1-2.8-3-2.9-3.2zM37.2 38.5h-2.4c-.1 0-.2.1-.2.2v.1c0 .1.1.2.2.2h2.4c.1 0 .2-.1.2-.2v-.1c-.1-.1-.1-.2-.2-.2zM36.4 22.7c0-.7-.8-.7-.8 0V27h.8v-4.3zM26.5 31.1c.2 0 4.2.7 4.2.7l.1-.7s-4.1-.6-4.2-.7c-.7-.2-.8.6-.1.7zM45.4 30.4c-.2 0-4.2.7-4.2.7l.1.7s4.1-.6 4.2-.7c.7 0 .6-.8-.1-.7zM37.2 37.8h-2.4c-.1 0-.2.1-.2.2v.1c0 .1.1.2.2.2h2.4c.1 0 .2-.1.2-.2V38c-.1-.1-.1-.2-.2-.2zM42 24.7c-.1.1-2.9 3.2-2.9 3.2l.6.5s2.7-3.1 2.9-3.2c.4-.5-.2-1-.6-.5zM53.2 40.4l-3-7.4s-.3-3.1-.6-4.2c-1.2-5.3-7.1-10.1-13.5-10.1-7.8 0-14 6.3-14 14 0 4.5 2.1 8.5 5.4 11v9.1c0 1.1.9 1.9 2 1.9h11.1c1.1 0 1.9-.8 2-1.9v-4.5c0 .6 4.2.8 5.6.6 1.6-.2 2.2-1.6 2.2-3.1V42h1.9c.6 0 1.1-.5 1.1-1.1-.1-.2-.2-.4-.2-.5zm-9.3-7.6c0 .7-.2 1.4-.4 2l2.1 2.3c-.2.5-.5.9-.8 1.4l-3-.7c-.5.5-1 .9-1.6 1.3l.1 3.1c-.5.2-1 .4-1.5.5l-1.9-2.5c-.7.1-1.4.1-2 0L33 42.6c-.5-.1-1-.3-1.5-.6l.1-3-.9-.6c-.3-.2-.5-.5-.7-.7l-3 .6c-.3-.4-.6-.9-.8-1.4l2-2.2c-.2-.7-.3-1.4-.4-2.1l-2.6-1.4c.1-.5.2-1 .3-1.6l3-.4c.3-.7.6-1.3 1.1-1.9l-1.1-2.8c.4-.4.8-.7 1.2-1l2.5 1.6c.6-.3 1.3-.6 2-.7l.9-2.9h1.6l.9 2.9c.7.2 1.4.4 2 .7l2.6-1.6c.2.2.4.3.6.5l.6.6-1.2 2.8c.4.6.8 1.2 1 1.8l3 .4c.1.5.2 1.1.3 1.6l-2.6 1.6zM36 28.8c-1.8 0-3.3 1.5-3.3 3.3 0 .6.2 1.2.4 1.6.8 1.5 1 2.3 1.2 3.1.1.7.3.8.8.8h1.8c.5 0 .7-.2.8-.8.1-.8.3-1.6 1.2-3.1.3-.5.4-1 .4-1.6 0-1.9-1.5-3.3-3.3-3.3z"/></g><circle fill="none" stroke="#48C2C5" stroke-miterlimit="10" cx="36.1" cy="36.1" r="35.4"/></g></svg>