<svg xmlns="http://www.w3.org/2000/svg" viewBox="313.5 487 52 52" enable-background="new 313.5 487 52 52"><g><path fill="#333" d="M332.9 509.7c1.5 5.2 4.8 8.3 9.7 10.1 1.9-.1 1.9-1.8 3.8-2.1 3-.4 7.9 1.1 8 4.5.2 6.9-9.8 5.3-14.6 3.1-3-1.3-5.2-3-7.3-5.2-3.8-3.8-8.7-11-7.3-17.3 1.6-7.4 10.6-4.2 9.7 3.1-.1 1.5-.9 1.7-2 3.8z"/></g><g><path fill="none" stroke="#000" stroke-miterlimit="10" d="M364.5 512.8c0 13.7-11.2 24.8-24.8 24.8-13.7 0-24.8-11.2-24.8-24.8 0-13.7 11.2-24.8 24.8-24.8 13.6.1 24.8 11.2 24.8 24.8z"/></g></svg>