<svg xmlns="http://www.w3.org/2000/svg" viewBox="313.5 487 52 52" enable-background="new 313.5 487 52 52"><path fill="#333" d="M354.2 516.7c-.1-.2-.1-.4-.1-.7.4-1.8.4-3.5.1-5.3-1.3-7.8-8.7-13.3-16.5-12.3-.5.1-.8 0-1.3-.2-3.3-1.8-7.4-1.2-10.1 1.5-2.6 2.6-3.3 6.7-1.6 10 .2.3.2.7.2 1.1-.2.8-.2 1.6-.2 2.5 0 .5 0 1 .1 1.5.9 8.5 8.7 14.4 17.1 13.1.3 0 .5 0 .7.1 1.6.8 3.3 1 5 .7 5.7-.9 8.9-6.7 6.6-12zm-7.4 4c-.9 1.1-2.1 1.8-3.5 2.2-2.5.7-5.1.8-7.7 0-2.3-.7-4-2.1-4.7-4.5-.5-1.7.6-3 2.3-2.8.7.1 1.2.5 1.6 1.1l.6 1.2c.6 1.3 1.6 2 3.1 2.2 1.2.1 2.3 0 3.4-.4.4-.2.8-.5 1.1-.8.8-.9.7-2.3-.3-3-1-.7-2.1-.9-3.3-1.2-1.6-.4-3.2-.7-4.8-1.4-1.6-.7-2.8-1.7-3.3-3.5-.5-2.1.1-3.8 1.7-5.1 1.5-1.2 3.2-1.6 5-1.7h1.3c1.7 0 3.3.2 4.8.9 1.2.6 2.1 1.4 2.7 2.6.3.6.4 1.2.2 1.9-.2.8-.7 1.3-1.5 1.5-.8.2-1.6 0-2.1-.7-.2-.4-.5-.7-.7-1.1-.7-1.2-1.7-1.9-3.1-1.9-.7 0-1.3 0-1.9.1-.6.1-1.1.4-1.5.8-.8.7-.7 1.7.1 2.4.5.4 1.2.7 1.9.8 1.6.4 3.1.8 4.7 1.2.9.2 1.7.6 2.5 1 3.6 1.6 3.3 6 1.4 8.2z"/><g><path fill="none" stroke="#000" stroke-miterlimit="10" d="M364.5 512.8c0 13.7-11.2 24.8-24.8 24.8-13.7 0-24.8-11.2-24.8-24.8 0-13.7 11.2-24.8 24.8-24.8 13.6.1 24.8 11.2 24.8 24.8z"/></g></svg>