<svg xmlns="http://www.w3.org/2000/svg" viewBox="313.5 487 52 52" enable-background="new 313.5 487 52 52"><g><path d="M354 507.4v.9c0 8.8-6.6 18.8-18.8 18.8-3.7 0-7.2-1.1-10.1-3 .5.1 1.1.1 1.6.1 3.1 0 6-1.1 8.2-2.9-2.9 0-5.3-1.9-6.2-4.6.4.1.9.1 1.3.1.6 0 1.2-.1 1.7-.2-3-.6-5.3-3.3-5.3-6.5v-.1c.9.5 1.9.7 3 .9-1.8-1.2-3-3.2-3-5.6 0-1.2.3-2.3.9-3.3 3.3 3.9 8.1 6.6 13.7 6.9-.1-.5-.2-1-.2-1.5 0-3.6 3-6.6 6.6-6.6 1.9 0 3.6.9 4.8 2.1 1.5-.3 2.9-.9 4.2-1.6-.5 1.5-1.5 2.9-2.9 3.6 1.4-.1 2.6-.5 3.8-1.1-1 1.5-2.1 2.6-3.3 3.6z"/></g><g><path fill="none" stroke="#000" stroke-miterlimit="10" d="M364.5 512.8c0 13.7-11.2 24.8-24.8 24.8-13.7 0-24.8-11.2-24.8-24.8 0-13.7 11.2-24.8 24.8-24.8 13.6.1 24.8 11.2 24.8 24.8z"/></g></svg>